<svg width="23" height="22" viewBox="0 0 23 22" fill="none" xmlns="http://www.w3.org/2000/svg">
<path d="M11.5027 5.38965C8.39722 5.38965 5.89233 7.89453 5.89233 11C5.89233 14.1055 8.39722 16.6103 11.5027 16.6103C14.6082 16.6103 17.113 14.1055 17.113 11C17.113 7.89453 14.6082 5.38965 11.5027 5.38965ZM11.5027 14.6475C9.49585 14.6475 7.85522 13.0117 7.85522 11C7.85522 8.98828 9.49097 7.35254 11.5027 7.35254C13.5144 7.35254 15.1501 8.98828 15.1501 11C15.1501 13.0117 13.5095 14.6475 11.5027 14.6475ZM18.6511 5.16016C18.6511 5.8877 18.0652 6.46875 17.3425 6.46875C16.615 6.46875 16.0339 5.88281 16.0339 5.16016C16.0339 4.4375 16.6199 3.85156 17.3425 3.85156C18.0652 3.85156 18.6511 4.4375 18.6511 5.16016ZM22.3669 6.48828C22.2839 4.73535 21.8835 3.18262 20.5994 1.90332C19.3201 0.624023 17.7673 0.223633 16.0144 0.135742C14.2078 0.0332031 8.79272 0.0332031 6.98608 0.135742C5.23804 0.21875 3.6853 0.619141 2.40112 1.89844C1.11694 3.17773 0.721436 4.73047 0.633545 6.4834C0.531006 8.29004 0.531006 13.7051 0.633545 15.5117C0.716553 17.2646 1.11694 18.8174 2.40112 20.0967C3.6853 21.376 5.23315 21.7764 6.98608 21.8643C8.79272 21.9668 14.2078 21.9668 16.0144 21.8643C17.7673 21.7812 19.3201 21.3809 20.5994 20.0967C21.8787 18.8174 22.2791 17.2646 22.3669 15.5117C22.4695 13.7051 22.4695 8.29492 22.3669 6.48828ZM20.033 17.4502C19.6521 18.4072 18.9148 19.1445 17.9529 19.5303C16.5125 20.1016 13.0945 19.9697 11.5027 19.9697C9.91089 19.9697 6.48804 20.0967 5.05249 19.5303C4.09546 19.1494 3.35815 18.4121 2.97241 17.4502C2.40112 16.0098 2.53296 12.5918 2.53296 11C2.53296 9.4082 2.40601 5.98535 2.97241 4.5498C3.35327 3.59277 4.09058 2.85547 5.05249 2.46973C6.49292 1.89844 9.91089 2.03027 11.5027 2.03027C13.0945 2.03027 16.5173 1.90332 17.9529 2.46973C18.9099 2.85059 19.6472 3.58789 20.033 4.5498C20.6042 5.99023 20.4724 9.4082 20.4724 11C20.4724 12.5918 20.6042 16.0146 20.033 17.4502Z" fill="black"/>
</svg>
