<svg width="37" height="37" viewBox="0 0 37 37" fill="none" xmlns="http://www.w3.org/2000/svg">
<path fill-rule="evenodd" clip-rule="evenodd" d="M9.26784 0.015189C10.024 -0.0487012 10.7395 0.0889846 11.414 0.427916C17.7197 6.67842 23.9656 12.9795 30.1518 19.3308C31.5442 21.7451 31.7645 24.2765 30.8122 26.925C28.7355 30.7193 25.5714 32.1226 21.3195 31.1348C20.6131 30.8917 19.9527 30.5615 19.3384 30.1443C12.987 23.958 6.68598 17.7121 0.435476 11.4065C-0.423988 9.77372 -0.0112605 8.59051 1.67366 7.85701C2.3261 7.70645 2.93149 7.81656 3.48966 8.18719C9.54305 14.2406 15.5963 20.2938 21.6497 26.3472C23.4746 27.4858 25.0979 27.2382 26.5198 25.6043C27.3129 24.2461 27.258 22.9254 26.3548 21.6421C20.3014 15.5887 14.2481 9.53549 8.19475 3.4821C7.49873 2.01031 7.85631 0.854676 9.26784 0.015189Z" fill="black"/>
<path fill-rule="evenodd" clip-rule="evenodd" d="M2.16915 0.840626C3.07451 0.729355 3.89996 0.921851 4.64552 1.41844C10.9801 7.72541 17.2535 14.0263 23.4659 20.3214C21.7207 20.6705 20.6752 21.716 20.3292 23.4581C14.0118 17.2234 7.71093 10.95 1.42624 4.63772C0.460294 3.11211 0.70793 1.84636 2.16915 0.840626Z" fill="black"/>
<path fill-rule="evenodd" clip-rule="evenodd" d="M23.3008 5.29805C23.5813 5.27163 23.8565 5.29904 24.1262 5.38059C27.6805 8.8797 31.1748 12.4292 34.6095 16.029C37.7971 21.1608 37.7971 26.2786 34.6095 31.3824C30.7274 36.2412 25.7472 37.9195 19.6688 36.4177C18.0905 35.9041 16.6598 35.1336 15.3764 34.1064C10.7263 29.4563 6.07632 24.8064 1.42621 20.1562C0.722259 17.8347 1.57528 16.7067 3.98512 16.7719C4.26032 16.937 4.53537 17.1021 4.81057 17.2671C9.26803 21.7246 13.7255 26.1821 18.1829 30.6395C21.3022 32.8572 24.604 33.1324 28.0884 31.465C32.3893 28.4958 33.5726 24.5612 31.6379 19.661C31.3486 19.1373 31.0184 18.642 30.6473 18.1751C27.891 15.4739 25.1945 12.7225 22.5579 9.9206C21.8103 8.20002 22.058 6.65906 23.3008 5.29805Z" fill="black"/>
<path fill-rule="evenodd" clip-rule="evenodd" d="M23.1373 21.477C25.2198 21.4093 26.1278 22.3999 25.8613 24.4486C25.2836 25.6867 24.3205 26.1545 22.9722 25.8519C21.4567 25.0984 21.0989 23.9704 21.8991 22.4675C22.2481 22.0348 22.6608 21.7047 23.1373 21.477Z" fill="black"/>
</svg>
