<svg width="259" height="259" viewBox="0 0 259 259" fill="none" xmlns="http://www.w3.org/2000/svg">
<path d="M63.3411 86.5958C70.2402 83.6812 75.3795 77.7083 77.2322 70.4516C80.4769 57.7422 93.6914 50.3296 106.229 54.1861C113.387 56.3881 121.163 55.1161 127.247 50.7479C137.902 43.0977 152.79 45.9134 159.915 56.9265C163.983 63.2146 170.758 67.2387 178.226 67.8031C191.306 68.7916 200.901 80.5182 199.28 93.5346C198.354 100.967 200.957 108.404 206.315 113.637C215.7 122.801 215.512 137.952 205.904 146.881C200.417 151.98 197.631 159.35 198.372 166.803C199.67 179.855 189.787 191.341 176.687 192.005C169.207 192.384 162.335 196.239 158.112 202.424C150.716 213.257 135.763 215.703 125.301 207.792C119.328 203.274 111.585 201.81 104.374 203.834C91.7454 207.378 78.7185 199.64 75.7898 186.855C74.1175 179.554 69.1277 173.456 62.303 170.371C50.3502 164.969 45.3448 150.668 51.3198 138.991C54.7314 132.323 54.829 124.444 51.5837 117.694C45.8999 105.873 51.2581 91.7003 63.3411 86.5958Z" fill="#ECEEED" stroke="black"/>
<path d="M102.128 135.699C101.151 136.247 100.16 136.489 99.1542 136.427C98.1541 136.361 97.2255 136.041 96.3685 135.467C95.5081 134.887 94.8023 134.106 94.2511 133.123L90.259 126.006L92.387 124.813L96.3792 131.929C96.7053 132.511 97.1129 132.985 97.6021 133.353C98.0937 133.712 98.6246 133.922 99.1947 133.985C99.7673 134.038 100.347 133.9 100.934 133.571C101.528 133.238 101.948 132.815 102.195 132.302C102.439 131.783 102.53 131.223 102.469 130.623C102.41 130.014 102.217 129.419 101.891 128.837L97.8991 121.721L100.027 120.527L104.019 127.644C104.433 128.382 104.705 129.139 104.835 129.915C104.961 130.685 104.946 131.435 104.79 132.165C104.633 132.895 104.332 133.564 103.887 134.173C103.447 134.779 102.861 135.288 102.128 135.699ZM108.76 131.681L101.421 118.598L103.549 117.405L110.888 130.487L108.76 131.681ZM113.96 120.095L112.268 121.044L115.967 127.638L113.839 128.832L110.14 122.238L108.849 122.962L107.656 120.834L108.947 120.11L107.41 117.371L109.538 116.178L111.075 118.916L112.767 117.967L113.96 120.095ZM114.207 117.159L116.335 115.965L121.228 124.687L119.099 125.881L114.207 117.159ZM114.658 115.427C114.344 115.604 114.022 115.65 113.693 115.567C113.36 115.479 113.106 115.277 112.93 114.963C112.757 114.655 112.719 114.336 112.817 114.006C112.915 113.676 113.118 113.425 113.426 113.252C113.734 113.079 114.051 113.039 114.378 113.13C114.711 113.219 114.963 113.417 115.136 113.726C115.312 114.04 115.354 114.36 115.262 114.687C115.167 115.008 114.966 115.255 114.658 115.427ZM123.256 123.549L118.364 114.828L120.492 113.634L120.927 114.41C121.047 113.93 121.263 113.484 121.575 113.072C121.884 112.654 122.276 112.312 122.753 112.044C123.358 111.705 123.993 111.536 124.659 111.537C125.33 111.535 125.951 111.688 126.52 111.995C126.561 111.345 126.755 110.736 127.101 110.167C127.447 109.599 127.922 109.145 128.527 108.806C129.166 108.447 129.833 108.279 130.526 108.303C131.223 108.318 131.872 108.5 132.473 108.851C133.077 109.192 133.559 109.682 133.918 110.322L137.01 115.834L134.882 117.028L132.108 112.083C131.919 111.745 131.661 111.484 131.336 111.3C131.014 111.106 130.665 111.004 130.292 110.992C129.921 110.97 129.564 111.056 129.22 111.248C128.877 111.441 128.614 111.7 128.429 112.025C128.247 112.341 128.15 112.686 128.138 113.06C128.126 113.433 128.22 113.797 128.418 114.152L131.192 119.097L129.064 120.291L126.29 115.346C126.091 114.991 125.832 114.72 125.513 114.532C125.194 114.344 124.849 114.247 124.478 114.241C124.105 114.229 123.746 114.319 123.403 114.512C123.066 114.701 122.807 114.961 122.626 115.292C122.441 115.617 122.344 115.969 122.336 116.349C122.329 116.719 122.421 117.073 122.61 117.41L125.384 122.355L123.256 123.549ZM142.551 113.024C141.749 113.474 140.901 113.678 140.006 113.637C139.118 113.593 138.282 113.336 137.498 112.866C136.717 112.386 136.09 111.725 135.617 110.882C135.258 110.243 135.038 109.583 134.954 108.903C134.868 108.218 134.905 107.555 135.066 106.915C135.229 106.265 135.508 105.673 135.903 105.138C136.299 104.603 136.796 104.167 137.395 103.831C138.197 103.381 139.043 103.178 139.931 103.222C140.826 103.263 141.663 103.523 142.444 104.003C143.231 104.479 143.863 105.141 144.339 105.99C144.694 106.624 144.914 107.28 144.997 107.96C145.08 108.639 145.04 109.304 144.877 109.953C144.716 110.594 144.438 111.182 144.043 111.717C143.653 112.249 143.156 112.684 142.551 113.024ZM141.358 110.895C141.782 110.657 142.099 110.33 142.309 109.914C142.519 109.499 142.616 109.051 142.599 108.571C142.588 108.088 142.459 107.625 142.211 107.184C141.956 106.73 141.623 106.374 141.211 106.116C140.801 105.849 140.363 105.702 139.896 105.673C139.431 105.635 138.996 105.731 138.589 105.959C138.17 106.194 137.856 106.519 137.646 106.935C137.436 107.351 137.338 107.804 137.352 108.292C137.366 108.781 137.497 109.247 137.745 109.688C138.003 110.148 138.338 110.506 138.75 110.764C139.162 111.022 139.599 111.167 140.06 111.199C140.524 111.222 140.956 111.121 141.358 110.895ZM150.872 108.264C150.402 108.49 149.913 108.646 149.403 108.733C148.897 108.811 148.405 108.807 147.93 108.722C147.454 108.638 147.025 108.458 146.642 108.184L148.008 106.408C148.143 106.486 148.326 106.547 148.558 106.593C148.787 106.632 149.033 106.636 149.297 106.602C149.567 106.565 149.833 106.474 150.095 106.327C150.316 106.203 150.509 106.057 150.674 105.887C150.841 105.709 150.95 105.522 151.001 105.326C151.057 105.126 151.028 104.924 150.914 104.721C150.793 104.506 150.624 104.383 150.408 104.351C150.194 104.31 149.958 104.325 149.698 104.394C149.441 104.454 149.194 104.516 148.955 104.581C148.341 104.781 147.73 104.898 147.123 104.933C146.521 104.964 145.972 104.879 145.476 104.675C144.983 104.463 144.589 104.095 144.295 103.572C143.973 102.996 143.845 102.414 143.912 101.826C143.986 101.235 144.203 100.689 144.564 100.188C144.931 99.6838 145.4 99.272 145.969 98.9524C146.661 98.5642 147.377 98.3541 148.115 98.3219C148.857 98.2807 149.543 98.4271 150.173 98.7612L149.048 100.7C148.888 100.606 148.703 100.541 148.492 100.507C148.279 100.466 148.057 100.46 147.829 100.489C147.597 100.512 147.376 100.575 147.166 100.677C146.898 100.812 146.673 100.969 146.49 101.148C146.308 101.327 146.189 101.524 146.133 101.738C146.084 101.95 146.124 102.172 146.255 102.404C146.379 102.625 146.559 102.742 146.795 102.754C147.028 102.761 147.283 102.725 147.56 102.646C147.843 102.564 148.117 102.495 148.383 102.437C148.989 102.319 149.585 102.256 150.169 102.249C150.76 102.239 151.291 102.335 151.763 102.536C152.236 102.737 152.604 103.088 152.87 103.589C153.186 104.153 153.295 104.742 153.196 105.356C153.094 105.963 152.837 106.528 152.426 107.049C152.021 107.567 151.503 107.972 150.872 108.264ZM104.507 167.317L102.378 168.511L95.04 155.429L97.1681 154.235L97.7894 155.343C97.8525 154.788 98.022 154.272 98.2978 153.796C98.5762 153.312 98.9945 152.913 99.5527 152.599C100.192 152.241 100.855 152.026 101.541 151.954C102.227 151.883 102.899 151.942 103.555 152.131C104.215 152.312 104.816 152.613 105.358 153.035C105.906 153.454 106.358 153.98 106.714 154.614C107.069 155.247 107.284 155.91 107.359 156.602C107.439 157.291 107.387 157.966 107.2 158.629C107.016 159.282 106.715 159.883 106.297 160.431C105.878 160.98 105.349 161.433 104.709 161.792C104.151 162.105 103.594 162.257 103.038 162.248C102.485 162.229 101.956 162.102 101.449 161.867L104.507 167.317ZM100.676 154.664C100.234 154.912 99.9042 155.25 99.6858 155.678C99.4641 156.1 99.3621 156.559 99.3796 157.054C99.3972 157.548 99.5365 158.028 99.7974 158.493C100.058 158.958 100.397 159.33 100.813 159.609C101.226 159.882 101.672 160.037 102.151 160.074C102.628 160.105 103.087 159.996 103.528 159.748C103.976 159.497 104.322 159.154 104.567 158.718C104.812 158.283 104.938 157.811 104.943 157.304C104.946 156.79 104.815 156.298 104.551 155.827C104.29 155.362 103.941 154.999 103.505 154.739C103.069 154.48 102.601 154.341 102.102 154.323C101.605 154.296 101.13 154.409 100.676 154.664ZM110.536 158.202L105.635 149.485L107.763 148.292L108.208 149.063C108.328 148.583 108.544 148.137 108.856 147.725C109.164 147.307 109.557 146.965 110.034 146.697C110.353 146.518 110.699 146.385 111.071 146.299L111.437 148.914C111.168 148.951 110.922 149.031 110.701 149.155C110.358 149.347 110.091 149.608 109.901 149.936C109.713 150.255 109.615 150.605 109.606 150.984C109.6 151.355 109.693 151.712 109.886 152.055L112.664 157.008L110.536 158.202ZM120.557 152.879C119.754 153.33 118.906 153.534 118.011 153.493C117.123 153.449 116.287 153.192 115.503 152.722C114.722 152.242 114.095 151.581 113.622 150.738C113.264 150.099 113.043 149.439 112.96 148.759C112.873 148.074 112.91 147.411 113.071 146.771C113.234 146.121 113.513 145.529 113.909 144.994C114.304 144.458 114.801 144.023 115.4 143.687C116.202 143.237 117.048 143.034 117.936 143.078C118.831 143.119 119.669 143.379 120.45 143.859C121.236 144.334 121.868 144.997 122.344 145.846C122.699 146.48 122.919 147.136 123.002 147.816C123.085 148.495 123.045 149.16 122.882 149.809C122.721 150.45 122.443 151.038 122.048 151.573C121.658 152.105 121.161 152.54 120.557 152.879ZM119.363 150.751C119.787 150.513 120.104 150.186 120.315 149.77C120.525 149.354 120.621 148.907 120.604 148.427C120.593 147.944 120.464 147.481 120.216 147.04C119.961 146.586 119.628 146.23 119.216 145.972C118.806 145.705 118.368 145.557 117.901 145.529C117.436 145.491 117.001 145.587 116.594 145.815C116.175 146.05 115.861 146.375 115.651 146.791C115.441 147.207 115.343 147.659 115.357 148.148C115.371 148.637 115.503 149.103 115.75 149.544C116.008 150.004 116.343 150.362 116.755 150.62C117.168 150.878 117.604 151.023 118.065 151.055C118.529 151.078 118.962 150.976 119.363 150.751ZM126.694 137.673L128.953 136.406L131.52 152.164L129.261 153.431L128.394 148.185L120.362 141.225L122.69 139.919L127.824 144.675L126.694 137.673ZM138.681 142.713C137.879 143.163 137.03 143.367 136.136 143.326C135.247 143.282 134.41 143.022 133.623 142.546C132.842 142.067 132.215 141.406 131.742 140.563C131.386 139.929 131.167 139.272 131.084 138.593C130.998 137.907 131.035 137.244 131.195 136.604C131.358 135.954 131.638 135.362 132.033 134.827C132.428 134.292 132.926 133.856 133.524 133.52C134.205 133.139 134.908 132.935 135.636 132.909C136.365 132.875 137.068 132.996 137.744 133.275C138.42 133.553 139.027 133.961 139.566 134.5C140.105 135.038 140.521 135.684 140.813 136.437L134.438 140.013C134.702 140.293 135 140.512 135.333 140.669C135.663 140.821 136.014 140.895 136.387 140.892C136.757 140.884 137.123 140.781 137.487 140.585C137.863 140.382 138.151 140.105 138.352 139.755C138.556 139.397 138.672 139.003 138.699 138.575L141.154 137.863C141.233 138.835 141.06 139.765 140.634 140.654C140.204 141.537 139.553 142.223 138.681 142.713ZM133.473 138.456L137.764 136.049C137.504 135.736 137.191 135.499 136.826 135.337C136.462 135.167 136.082 135.082 135.685 135.083C135.288 135.084 134.915 135.182 134.567 135.378C134.218 135.574 133.942 135.839 133.74 136.174C133.535 136.503 133.408 136.869 133.358 137.271C133.311 137.664 133.35 138.059 133.473 138.456ZM148.241 133.6L150.742 133.562C150.648 134.334 150.391 135.055 149.972 135.725C149.553 136.396 148.986 136.932 148.271 137.333C147.469 137.783 146.62 137.988 145.726 137.947C144.837 137.902 144.001 137.645 143.218 137.175C142.437 136.696 141.81 136.035 141.337 135.192C140.978 134.552 140.757 133.893 140.674 133.213C140.588 132.528 140.625 131.865 140.786 131.224C140.949 130.575 141.228 129.982 141.623 129.447C142.019 128.912 142.516 128.476 143.115 128.141C143.83 127.739 144.583 127.535 145.373 127.527C146.164 127.519 146.916 127.682 147.631 128.015L146.289 130.121C145.955 130.002 145.613 129.957 145.262 129.986C144.917 130.011 144.599 130.106 144.308 130.269C143.89 130.503 143.577 130.832 143.37 131.253C143.16 131.669 143.062 132.122 143.077 132.611C143.088 133.094 143.217 133.556 143.465 133.998C143.71 134.434 144.037 134.786 144.447 135.053C144.853 135.314 145.289 135.463 145.753 135.501C146.217 135.538 146.659 135.44 147.078 135.205C147.38 135.035 147.632 134.81 147.833 134.529C148.032 134.242 148.168 133.932 148.241 133.6ZM154.175 125.055L152.483 126.004L156.181 132.598L154.053 133.792L150.355 127.198L149.064 127.922L147.87 125.794L149.161 125.07L147.625 122.331L149.753 121.138L151.289 123.876L152.981 122.927L154.175 125.055ZM163.21 128.953C162.408 129.403 161.56 129.608 160.665 129.567C159.777 129.522 158.94 129.265 158.157 128.795C157.376 128.316 156.749 127.655 156.276 126.812C155.917 126.172 155.696 125.513 155.613 124.833C155.527 124.148 155.564 123.485 155.725 122.844C155.888 122.195 156.167 121.602 156.562 121.067C156.958 120.532 157.455 120.096 158.054 119.761C158.856 119.31 159.702 119.108 160.59 119.152C161.485 119.193 162.322 119.453 163.103 119.932C163.89 120.408 164.522 121.07 164.998 121.919C165.353 122.553 165.573 123.21 165.656 123.889C165.739 124.569 165.699 125.233 165.536 125.883C165.375 126.523 165.097 127.111 164.702 127.646C164.312 128.178 163.815 128.614 163.21 128.953ZM162.017 126.825C162.441 126.587 162.758 126.26 162.968 125.844C163.178 125.428 163.275 124.98 163.258 124.5C163.247 124.017 163.118 123.555 162.87 123.113C162.615 122.66 162.282 122.304 161.87 122.046C161.46 121.779 161.022 121.631 160.555 121.603C160.09 121.565 159.655 121.66 159.248 121.889C158.829 122.123 158.515 122.449 158.305 122.865C158.095 123.281 157.997 123.733 158.011 124.222C158.025 124.711 158.156 125.176 158.404 125.618C158.662 126.077 158.997 126.436 159.409 126.694C159.821 126.952 160.258 127.097 160.719 127.128C161.183 127.151 161.615 127.05 162.017 126.825ZM171.531 124.194C171.061 124.419 170.572 124.575 170.062 124.662C169.556 124.74 169.064 124.737 168.589 124.652C168.113 124.567 167.684 124.387 167.301 124.113L168.667 122.338C168.802 122.415 168.985 122.476 169.217 122.522C169.446 122.562 169.692 122.565 169.956 122.532C170.226 122.495 170.492 122.403 170.754 122.256C170.975 122.133 171.168 121.986 171.333 121.817C171.5 121.639 171.609 121.452 171.66 121.255C171.716 121.056 171.687 120.854 171.573 120.65C171.452 120.435 171.283 120.312 171.067 120.281C170.853 120.24 170.617 120.254 170.357 120.323C170.1 120.383 169.853 120.446 169.614 120.511C169 120.71 168.389 120.827 167.782 120.862C167.18 120.894 166.631 120.808 166.135 120.605C165.642 120.393 165.248 120.025 164.954 119.501C164.632 118.926 164.504 118.344 164.571 117.756C164.645 117.164 164.862 116.618 165.223 116.117C165.59 115.613 166.059 115.201 166.628 114.882C167.32 114.494 168.036 114.284 168.774 114.251C169.516 114.21 170.202 114.357 170.832 114.691L169.707 116.629C169.547 116.535 169.362 116.471 169.151 116.436C168.938 116.396 168.716 116.39 168.488 116.419C168.256 116.442 168.035 116.504 167.825 116.607C167.557 116.742 167.332 116.899 167.149 117.078C166.967 117.257 166.848 117.453 166.792 117.668C166.743 117.879 166.783 118.101 166.914 118.334C167.038 118.555 167.218 118.671 167.454 118.684C167.687 118.691 167.942 118.655 168.219 118.576C168.502 118.494 168.776 118.424 169.042 118.367C169.648 118.248 170.244 118.186 170.828 118.179C171.419 118.168 171.95 118.264 172.422 118.465C172.895 118.667 173.263 119.018 173.529 119.519C173.845 120.083 173.954 120.671 173.855 121.285C173.753 121.893 173.496 122.457 173.085 122.978C172.68 123.496 172.162 123.901 171.531 124.194Z" fill="black"/>
</svg>
