<svg width="101" height="37" viewBox="0 0 101 37" fill="none" xmlns="http://www.w3.org/2000/svg">
<path fill-rule="evenodd" clip-rule="evenodd" d="M9.26784 0.015189C10.024 -0.0487012 10.7395 0.0889846 11.414 0.427916C17.7197 6.67842 23.9656 12.9795 30.1518 19.3308C31.5442 21.7451 31.7645 24.2765 30.8122 26.925C28.7355 30.7193 25.5714 32.1226 21.3195 31.1348C20.6131 30.8917 19.9527 30.5615 19.3384 30.1443C12.987 23.958 6.68598 17.7121 0.435476 11.4065C-0.423988 9.77372 -0.0112605 8.59051 1.67366 7.85701C2.3261 7.70645 2.93149 7.81656 3.48966 8.18719C9.54305 14.2406 15.5963 20.2938 21.6497 26.3472C23.4746 27.4858 25.0979 27.2382 26.5198 25.6043C27.3129 24.2461 27.258 22.9254 26.3548 21.6421C20.3014 15.5887 14.2481 9.53549 8.19475 3.4821C7.49873 2.01031 7.85631 0.854676 9.26784 0.015189Z" fill="black"/>
<path fill-rule="evenodd" clip-rule="evenodd" d="M2.16915 0.840626C3.07451 0.729355 3.89996 0.921851 4.64552 1.41844C10.9801 7.72541 17.2535 14.0263 23.4659 20.3214C21.7207 20.6705 20.6752 21.716 20.3292 23.4581C14.0118 17.2234 7.71093 10.95 1.42624 4.63772C0.460294 3.11211 0.70793 1.84636 2.16915 0.840626Z" fill="black"/>
<path fill-rule="evenodd" clip-rule="evenodd" d="M23.3008 5.29805C23.5813 5.27163 23.8565 5.29904 24.1262 5.38059C27.6805 8.8797 31.1748 12.4292 34.6095 16.029C37.7971 21.1608 37.7971 26.2786 34.6095 31.3824C30.7274 36.2412 25.7472 37.9195 19.6688 36.4177C18.0905 35.9041 16.6598 35.1336 15.3764 34.1064C10.7263 29.4563 6.07632 24.8064 1.42621 20.1562C0.722259 17.8347 1.57528 16.7067 3.98512 16.7719C4.26032 16.937 4.53537 17.1021 4.81057 17.2671C9.26803 21.7246 13.7255 26.1821 18.1829 30.6395C21.3022 32.8572 24.604 33.1324 28.0884 31.465C32.3893 28.4958 33.5726 24.5612 31.6379 19.661C31.3486 19.1373 31.0184 18.642 30.6473 18.1751C27.891 15.4739 25.1945 12.7225 22.5579 9.9206C21.8103 8.20002 22.058 6.65906 23.3008 5.29805Z" fill="black"/>
<path fill-rule="evenodd" clip-rule="evenodd" d="M23.1373 21.477C25.2198 21.4093 26.1278 22.3999 25.8613 24.4486C25.2836 25.6867 24.3205 26.1545 22.9722 25.8519C21.4567 25.0984 21.0989 23.9704 21.8991 22.4675C22.2481 22.0348 22.6608 21.7047 23.1373 21.477Z" fill="black"/>
<path d="M47.08 24.4749V11.8749H51.256C52.126 11.8749 52.939 12.0399 53.695 12.3699C54.457 12.6939 55.126 13.1469 55.702 13.7289C56.284 14.3049 56.737 14.9739 57.061 15.7359C57.391 16.4919 57.556 17.3049 57.556 18.1749C57.556 19.0449 57.391 19.8609 57.061 20.6229C56.737 21.3789 56.284 22.0479 55.702 22.6299C55.126 23.2059 54.457 23.6589 53.695 23.9889C52.939 24.3129 52.126 24.4749 51.256 24.4749H47.08ZM49.276 22.2789H51.256C51.814 22.2789 52.339 22.1739 52.831 21.9639C53.329 21.7479 53.767 21.4539 54.145 21.0819C54.523 20.7039 54.82 20.2689 55.036 19.7769C55.252 19.2789 55.36 18.7449 55.36 18.1749C55.36 17.6049 55.252 17.0739 55.036 16.5819C54.82 16.0899 54.523 15.6549 54.145 15.2769C53.767 14.8989 53.332 14.6049 52.84 14.3949C52.348 14.1789 51.82 14.0709 51.256 14.0709H49.276V22.2789ZM62.8525 24.7089C62.0245 24.7089 61.2685 24.4959 60.5845 24.0699C59.9065 23.6439 59.3635 23.0709 58.9555 22.3509C58.5535 21.6309 58.3525 20.8359 58.3525 19.9659C58.3525 19.3119 58.4695 18.6999 58.7035 18.1299C58.9375 17.5539 59.2585 17.0499 59.6665 16.6179C60.0805 16.1799 60.5605 15.8379 61.1065 15.5919C61.6525 15.3459 62.2345 15.2229 62.8525 15.2229C63.5545 15.2229 64.1965 15.3729 64.7785 15.6729C65.3665 15.9669 65.8645 16.3719 66.2725 16.8879C66.6805 17.4039 66.9775 17.9919 67.1635 18.6519C67.3495 19.3119 67.3915 20.0019 67.2895 20.7219H60.7105C60.7945 21.0579 60.9325 21.3609 61.1245 21.6309C61.3165 21.8949 61.5595 22.1079 61.8535 22.2699C62.1475 22.4259 62.4805 22.5069 62.8525 22.5129C63.2365 22.5189 63.5845 22.4289 63.8965 22.2429C64.2145 22.0509 64.4785 21.7929 64.6885 21.4689L66.9295 21.9909C66.5635 22.7889 66.0175 23.4429 65.2915 23.9529C64.5655 24.4569 63.7525 24.7089 62.8525 24.7089ZM60.6385 19.0749H65.0665C65.0005 18.7149 64.8595 18.3909 64.6435 18.1029C64.4335 17.8089 64.1725 17.5749 63.8605 17.4009C63.5485 17.2269 63.2125 17.1399 62.8525 17.1399C62.4925 17.1399 62.1595 17.2269 61.8535 17.4009C61.5475 17.5689 61.2865 17.7999 61.0705 18.0939C60.8605 18.3819 60.7165 18.7089 60.6385 19.0749ZM71.4791 24.6369C71.0111 24.6069 70.5581 24.5139 70.1201 24.3579C69.6881 24.1959 69.3041 23.9769 68.9681 23.7009C68.6321 23.4249 68.3741 23.0949 68.1941 22.7109L70.0481 21.9189C70.1201 22.0389 70.2371 22.1679 70.3991 22.3059C70.5611 22.4379 70.7531 22.5489 70.9751 22.6389C71.2031 22.7289 71.4521 22.7739 71.7221 22.7739C71.9501 22.7739 72.1661 22.7439 72.3701 22.6839C72.5801 22.6179 72.7481 22.5189 72.8741 22.3869C73.0061 22.2549 73.0721 22.0839 73.0721 21.8739C73.0721 21.6519 72.9941 21.4809 72.8381 21.3609C72.6881 21.2349 72.4961 21.1419 72.2621 21.0819C72.0341 21.0159 71.8121 20.9559 71.5961 20.9019C71.0261 20.7879 70.4951 20.6109 70.0031 20.3709C69.5171 20.1309 69.1241 19.8219 68.8241 19.4439C68.5301 19.0599 68.3831 18.5979 68.3831 18.0579C68.3831 17.4639 68.5391 16.9509 68.8511 16.5189C69.1691 16.0869 69.5801 15.7539 70.0841 15.5199C70.5941 15.2859 71.1431 15.1689 71.7311 15.1689C72.4451 15.1689 73.0991 15.3189 73.6931 15.6189C74.2931 15.9129 74.7671 16.3299 75.1151 16.8699L73.3781 17.8959C73.2941 17.7519 73.1771 17.6199 73.0271 17.4999C72.8771 17.3739 72.7061 17.2719 72.5141 17.1939C72.3221 17.1099 72.1211 17.0619 71.9111 17.0499C71.6411 17.0379 71.3951 17.0619 71.1731 17.1219C70.9511 17.1819 70.7711 17.2839 70.6331 17.4279C70.5011 17.5719 70.4351 17.7639 70.4351 18.0039C70.4351 18.2319 70.5251 18.4029 70.7051 18.5169C70.8851 18.6249 71.1011 18.7089 71.3531 18.7689C71.6111 18.8289 71.8571 18.8949 72.0911 18.9669C72.6191 19.1409 73.1141 19.3539 73.5761 19.6059C74.0441 19.8579 74.4191 20.1669 74.7011 20.5329C74.9831 20.8989 75.1181 21.3369 75.1061 21.8469C75.1061 22.4289 74.9321 22.9389 74.5841 23.3769C74.2361 23.8089 73.7861 24.1389 73.2341 24.3669C72.6881 24.5949 72.1031 24.6849 71.4791 24.6369ZM76.4355 15.4749H78.6315V24.4749H76.4355V15.4749ZM77.5515 14.3139C77.2275 14.3139 76.9545 14.2089 76.7325 13.9989C76.5105 13.7829 76.3995 13.5129 76.3995 13.1889C76.3995 12.8709 76.5105 12.6039 76.7325 12.3879C76.9545 12.1719 77.2245 12.0639 77.5425 12.0639C77.8605 12.0639 78.1275 12.1719 78.3435 12.3879C78.5655 12.6039 78.6765 12.8709 78.6765 13.1889C78.6765 13.5129 78.5685 13.7829 78.3525 13.9989C78.1365 14.2089 77.8695 14.3139 77.5515 14.3139ZM87.2619 15.4749H89.4579V24.6459C89.4579 25.2939 89.3259 25.8819 89.0619 26.4099C88.7979 26.9439 88.4379 27.3999 87.9819 27.7779C87.5259 28.1619 87.0039 28.4559 86.4159 28.6599C85.8279 28.8699 85.2099 28.9749 84.5619 28.9749C83.9319 28.9749 83.3259 28.8459 82.7439 28.5879C82.1619 28.3299 81.6459 27.9759 81.1959 27.5259C80.7519 27.0819 80.4129 26.5749 80.1789 26.0049L82.1859 25.0959C82.3059 25.4259 82.4859 25.7139 82.7259 25.9599C82.9719 26.2119 83.2539 26.4069 83.5719 26.5449C83.8899 26.6889 84.2199 26.7609 84.5619 26.7609C84.9099 26.7609 85.2429 26.7129 85.5609 26.6169C85.8849 26.5209 86.1759 26.3799 86.4339 26.1939C86.6919 26.0139 86.8929 25.7919 87.0369 25.5279C87.1869 25.2699 87.2619 24.9759 87.2619 24.6459V23.3769C86.9799 23.7729 86.6259 24.0939 86.1999 24.3399C85.7739 24.5859 85.2819 24.7089 84.7239 24.7089C84.0759 24.7089 83.4699 24.5859 82.9059 24.3399C82.3419 24.0939 81.8439 23.7549 81.4119 23.3229C80.9859 22.8849 80.6499 22.3809 80.4039 21.8109C80.1639 21.2409 80.0439 20.6289 80.0439 19.9749C80.0439 19.3209 80.1639 18.7089 80.4039 18.1389C80.6499 17.5689 80.9859 17.0679 81.4119 16.6359C81.8439 16.1979 82.3419 15.8559 82.9059 15.6099C83.4699 15.3639 84.0759 15.2409 84.7239 15.2409C85.2819 15.2409 85.7739 15.3639 86.1999 15.6099C86.6259 15.8499 86.9799 16.1679 87.2619 16.5639V15.4749ZM84.7509 22.5939C85.2129 22.5939 85.6209 22.4769 85.9749 22.2429C86.3349 22.0029 86.6169 21.6849 86.8209 21.2889C87.0249 20.8869 87.1269 20.4489 87.1269 19.9749C87.1269 19.4949 87.0219 19.0569 86.8119 18.6609C86.6079 18.2649 86.3259 17.9469 85.9659 17.7069C85.6119 17.4669 85.2069 17.3469 84.7509 17.3469C84.3009 17.3469 83.8899 17.4669 83.5179 17.7069C83.1459 17.9409 82.8489 18.2559 82.6269 18.6519C82.4049 19.0479 82.2939 19.4889 82.2939 19.9749C82.2939 20.4609 82.4049 20.9019 82.6269 21.2979C82.8489 21.6939 83.1459 22.0089 83.5179 22.2429C83.8899 22.4769 84.3009 22.5939 84.7509 22.5939ZM99.867 18.7869V24.4749H97.671V19.3629C97.671 19.0089 97.584 18.6879 97.41 18.3999C97.236 18.1059 97.002 17.8749 96.708 17.7069C96.42 17.5329 96.099 17.4459 95.745 17.4459C95.391 17.4459 95.067 17.5329 94.773 17.7069C94.485 17.8749 94.254 18.1059 94.08 18.3999C93.912 18.6879 93.828 19.0089 93.828 19.3629V24.4749H91.632L91.623 15.4749H93.819L93.828 16.2759C94.134 15.9519 94.5 15.6969 94.926 15.5109C95.352 15.3189 95.811 15.2229 96.303 15.2229C96.957 15.2229 97.554 15.3849 98.094 15.7089C98.634 16.0269 99.063 16.4559 99.381 16.9959C99.705 17.5299 99.867 18.1269 99.867 18.7869Z" fill="black"/>
</svg>
