<svg width="22" height="22" viewBox="0 0 22 22" fill="none" xmlns="http://www.w3.org/2000/svg">
<path d="M18.6611 3.24121C16.6152 1.19043 13.8906 0.0625 10.9951 0.0625C5.01855 0.0625 0.155273 4.92578 0.155273 10.9023C0.155273 12.8115 0.65332 14.6768 1.60059 16.3223L0.0625 21.9375L5.80957 20.4287C7.3916 21.293 9.17383 21.7471 10.9902 21.7471H10.9951C16.9668 21.7471 21.9375 16.8838 21.9375 10.9072C21.9375 8.01172 20.707 5.29199 18.6611 3.24121ZM10.9951 19.9209C9.37402 19.9209 7.78711 19.4863 6.40527 18.666L6.07812 18.4707L2.66992 19.3643L3.57812 16.0391L3.36328 15.6973C2.45996 14.2617 1.98633 12.6064 1.98633 10.9023C1.98633 5.93652 6.0293 1.89355 11 1.89355C13.4072 1.89355 15.668 2.83105 17.3672 4.53516C19.0664 6.23926 20.1113 8.5 20.1064 10.9072C20.1064 15.8779 15.9609 19.9209 10.9951 19.9209ZM15.9365 13.1729C15.668 13.0361 14.335 12.3818 14.0859 12.2939C13.8369 12.2012 13.6563 12.1572 13.4756 12.4307C13.2949 12.7041 12.7773 13.3096 12.6162 13.4951C12.46 13.6758 12.2988 13.7002 12.0303 13.5635C10.4385 12.7676 9.39355 12.1426 8.34375 10.3408C8.06543 9.8623 8.62207 9.89648 9.13965 8.86133C9.22754 8.68066 9.18359 8.52441 9.11523 8.3877C9.04688 8.25098 8.50488 6.91797 8.28027 6.37598C8.06055 5.84863 7.83594 5.92188 7.66992 5.91211C7.51367 5.90234 7.33301 5.90234 7.15234 5.90234C6.97168 5.90234 6.67871 5.9707 6.42969 6.23926C6.18066 6.5127 5.48242 7.16699 5.48242 8.5C5.48242 9.83301 6.4541 11.1221 6.58594 11.3027C6.72266 11.4834 8.49512 14.2178 11.2148 15.3945C12.9336 16.1367 13.6074 16.2002 14.4668 16.0732C14.9893 15.9951 16.0684 15.4189 16.293 14.7842C16.5176 14.1494 16.5176 13.6074 16.4492 13.4951C16.3857 13.373 16.2051 13.3047 15.9365 13.1729Z" fill="black"/>
</svg>
