<svg width="48" height="48" viewBox="0 0 48 48" fill="none" xmlns="http://www.w3.org/2000/svg">
<circle cx="24" cy="24" r="24" fill="#AE46FF"/>
<path d="M14.5404 24.327C13.794 24.7186 13.8249 25.2922 14.6075 25.6018L16.9262 26.5192C17.7095 26.8302 18.8946 26.6605 19.5585 26.1425L29.6275 18.2018C30.2895 17.6812 30.3604 17.758 29.7856 18.3734L21.8256 26.8934C21.2488 27.507 21.4191 28.2605 22.2049 28.5644L22.4766 28.6702C23.2624 28.9741 24.543 29.4844 25.3237 29.8018L27.8953 30.8489C28.6766 31.1663 29.5114 30.7922 29.7333 29.9792L33.6527 15.5728C33.874 14.7599 33.4443 14.4147 32.6978 14.8057L14.5404 24.327Z" fill="white"/>
<path d="M20.9035 33.7586C20.8577 33.8961 22.4893 31.3961 22.4893 31.3961C22.9506 30.6915 22.6886 29.8509 21.9093 29.5322L20.1299 28.8038C19.3506 28.4851 18.977 28.8593 19.2996 29.638C19.2996 29.638 20.9506 33.6173 20.9035 33.7586Z" fill="white"/>
</svg>
