<svg width="25" height="26" viewBox="0 0 25 26" fill="none" xmlns="http://www.w3.org/2000/svg">
<path d="M12.5269 0.891235C5.68945 0.891235 0.390625 5.88831 0.390625 12.6378C0.390625 16.1681 1.84131 19.2189 4.20264 21.3263C4.61035 21.693 4.52637 21.9054 4.5957 24.1696C4.60116 24.3281 4.64534 24.483 4.72439 24.6206C4.80344 24.7582 4.91495 24.8744 5.0492 24.959C5.18346 25.0436 5.33637 25.0941 5.49461 25.106C5.65285 25.1179 5.8116 25.091 5.95703 25.0275C8.54053 23.8898 8.57373 23.7999 9.01172 23.9191C16.4966 25.9791 24.6094 21.1891 24.6094 12.6378C24.6094 5.88831 19.3647 0.891235 12.5269 0.891235ZM19.814 9.93079L16.2495 15.5739C16.1149 15.786 15.9379 15.9682 15.7297 16.1088C15.5214 16.2494 15.2863 16.3454 15.0392 16.391C14.7921 16.4365 14.5382 16.4305 14.2935 16.3733C14.0488 16.3161 13.8186 16.209 13.6172 16.0587L10.7812 13.9362C10.6545 13.8411 10.5003 13.7897 10.3418 13.7897C10.1833 13.7897 10.0291 13.8411 9.90234 13.9362L6.07568 16.8385C5.56494 17.2257 4.896 16.6139 5.24023 16.0734L8.80469 10.4303C8.93924 10.218 9.1162 10.0359 9.32446 9.89523C9.53273 9.75459 9.7678 9.65849 10.015 9.61296C10.2621 9.56744 10.516 9.57347 10.7607 9.63068C11.0054 9.6879 11.2357 9.79505 11.437 9.94543L14.272 12.0675C14.3988 12.1626 14.553 12.214 14.7114 12.214C14.8699 12.214 15.0241 12.1626 15.1509 12.0675L18.9795 9.16809C19.4893 8.77844 20.1582 9.38977 19.814 9.93079Z" fill="black"/>
</svg>
